<mxfile host="app.diagrams.net" agent="Mozilla/5.0 (X11; Ubuntu; Linux x86_64; rv:130.0) Gecko/20100101 Firefox/130.0" version="24.7.10">
  <diagram name="Page-1" id="AEVp_FnxUDkIhBNub9Zc">
    <mxGraphModel dx="1195" dy="663" grid="1" gridSize="10" guides="1" tooltips="1" connect="1" arrows="1" fold="1" page="1" pageScale="1" pageWidth="850" pageHeight="1100" math="0" shadow="0">
      <root>
        <mxCell id="0" />
        <mxCell id="1" parent="0" />
        <mxCell id="Bfh9I3coePdYq5AxXN2m-6" value="" style="edgeStyle=orthogonalEdgeStyle;rounded=0;orthogonalLoop=1;jettySize=auto;html=1;" edge="1" parent="1" source="Bfh9I3coePdYq5AxXN2m-1" target="Bfh9I3coePdYq5AxXN2m-5">
          <mxGeometry relative="1" as="geometry" />
        </mxCell>
        <mxCell id="Bfh9I3coePdYq5AxXN2m-1" value="&lt;div&gt;product&lt;/div&gt;" style="whiteSpace=wrap;html=1;aspect=fixed;" vertex="1" parent="1">
          <mxGeometry x="690" y="180" width="60" height="60" as="geometry" />
        </mxCell>
        <mxCell id="Bfh9I3coePdYq5AxXN2m-3" value="&lt;div&gt;item&lt;/div&gt;" style="whiteSpace=wrap;html=1;aspect=fixed;" vertex="1" parent="1">
          <mxGeometry x="690" y="340" width="60" height="60" as="geometry" />
        </mxCell>
        <mxCell id="Bfh9I3coePdYq5AxXN2m-7" value="" style="edgeStyle=orthogonalEdgeStyle;rounded=0;orthogonalLoop=1;jettySize=auto;html=1;" edge="1" parent="1" source="Bfh9I3coePdYq5AxXN2m-5" target="Bfh9I3coePdYq5AxXN2m-3">
          <mxGeometry relative="1" as="geometry" />
        </mxCell>
        <mxCell id="Bfh9I3coePdYq5AxXN2m-5" value="" style="ellipse;whiteSpace=wrap;html=1;aspect=fixed;" vertex="1" parent="1">
          <mxGeometry x="705" y="270" width="30" height="30" as="geometry" />
        </mxCell>
        <mxCell id="Bfh9I3coePdYq5AxXN2m-9" value="" style="edgeStyle=orthogonalEdgeStyle;rounded=0;orthogonalLoop=1;jettySize=auto;html=1;" edge="1" parent="1" source="Bfh9I3coePdYq5AxXN2m-8" target="Bfh9I3coePdYq5AxXN2m-3">
          <mxGeometry relative="1" as="geometry" />
        </mxCell>
        <mxCell id="Bfh9I3coePdYq5AxXN2m-8" value="quantidade" style="ellipse;whiteSpace=wrap;html=1;" vertex="1" parent="1">
          <mxGeometry x="680" y="500" width="80" height="40" as="geometry" />
        </mxCell>
        <mxCell id="Bfh9I3coePdYq5AxXN2m-19" value="" style="edgeStyle=orthogonalEdgeStyle;rounded=0;orthogonalLoop=1;jettySize=auto;html=1;" edge="1" parent="1" source="Bfh9I3coePdYq5AxXN2m-10" target="Bfh9I3coePdYq5AxXN2m-18">
          <mxGeometry relative="1" as="geometry" />
        </mxCell>
        <mxCell id="Bfh9I3coePdYq5AxXN2m-10" value="cart" style="whiteSpace=wrap;html=1;aspect=fixed;" vertex="1" parent="1">
          <mxGeometry x="440" y="340" width="60" height="60" as="geometry" />
        </mxCell>
        <mxCell id="Bfh9I3coePdYq5AxXN2m-12" value="" style="edgeStyle=orthogonalEdgeStyle;rounded=0;orthogonalLoop=1;jettySize=auto;html=1;" edge="1" parent="1" source="Bfh9I3coePdYq5AxXN2m-11" target="Bfh9I3coePdYq5AxXN2m-3">
          <mxGeometry relative="1" as="geometry" />
        </mxCell>
        <mxCell id="Bfh9I3coePdYq5AxXN2m-13" value="" style="edgeStyle=orthogonalEdgeStyle;rounded=0;orthogonalLoop=1;jettySize=auto;html=1;" edge="1" parent="1" source="Bfh9I3coePdYq5AxXN2m-11" target="Bfh9I3coePdYq5AxXN2m-10">
          <mxGeometry relative="1" as="geometry" />
        </mxCell>
        <mxCell id="Bfh9I3coePdYq5AxXN2m-11" value="compose" style="rhombus;whiteSpace=wrap;html=1;" vertex="1" parent="1">
          <mxGeometry x="560" y="330" width="80" height="80" as="geometry" />
        </mxCell>
        <mxCell id="Bfh9I3coePdYq5AxXN2m-15" value="N" style="text;html=1;align=center;verticalAlign=middle;whiteSpace=wrap;rounded=0;" vertex="1" parent="1">
          <mxGeometry x="650" y="340" width="30" height="23" as="geometry" />
        </mxCell>
        <mxCell id="Bfh9I3coePdYq5AxXN2m-16" value="1" style="text;html=1;align=center;verticalAlign=middle;whiteSpace=wrap;rounded=0;" vertex="1" parent="1">
          <mxGeometry x="510" y="340" width="30" height="23" as="geometry" />
        </mxCell>
        <mxCell id="Bfh9I3coePdYq5AxXN2m-17" value="user" style="whiteSpace=wrap;html=1;aspect=fixed;" vertex="1" parent="1">
          <mxGeometry x="160" y="340" width="60" height="60" as="geometry" />
        </mxCell>
        <mxCell id="Bfh9I3coePdYq5AxXN2m-20" value="" style="edgeStyle=orthogonalEdgeStyle;rounded=0;orthogonalLoop=1;jettySize=auto;html=1;" edge="1" parent="1" source="Bfh9I3coePdYq5AxXN2m-18" target="Bfh9I3coePdYq5AxXN2m-17">
          <mxGeometry relative="1" as="geometry" />
        </mxCell>
        <mxCell id="Bfh9I3coePdYq5AxXN2m-18" value="have" style="rhombus;whiteSpace=wrap;html=1;" vertex="1" parent="1">
          <mxGeometry x="300" y="330" width="80" height="80" as="geometry" />
        </mxCell>
        <mxCell id="Bfh9I3coePdYq5AxXN2m-26" style="edgeStyle=orthogonalEdgeStyle;rounded=0;orthogonalLoop=1;jettySize=auto;html=1;entryX=0;entryY=0.5;entryDx=0;entryDy=0;" edge="1" parent="1" source="Bfh9I3coePdYq5AxXN2m-21" target="Bfh9I3coePdYq5AxXN2m-22">
          <mxGeometry relative="1" as="geometry">
            <Array as="points">
              <mxPoint x="485" y="200" />
              <mxPoint x="485" y="170" />
            </Array>
          </mxGeometry>
        </mxCell>
        <mxCell id="Bfh9I3coePdYq5AxXN2m-27" style="edgeStyle=orthogonalEdgeStyle;rounded=0;orthogonalLoop=1;jettySize=auto;html=1;entryX=0;entryY=0.5;entryDx=0;entryDy=0;" edge="1" parent="1" source="Bfh9I3coePdYq5AxXN2m-21" target="Bfh9I3coePdYq5AxXN2m-23">
          <mxGeometry relative="1" as="geometry">
            <Array as="points">
              <mxPoint x="485" y="230" />
              <mxPoint x="485" y="270" />
            </Array>
          </mxGeometry>
        </mxCell>
        <mxCell id="Bfh9I3coePdYq5AxXN2m-21" value="&lt;div&gt;admin&lt;/div&gt;" style="whiteSpace=wrap;html=1;aspect=fixed;" vertex="1" parent="1">
          <mxGeometry x="390" y="190" width="60" height="60" as="geometry" />
        </mxCell>
        <mxCell id="Bfh9I3coePdYq5AxXN2m-25" style="edgeStyle=orthogonalEdgeStyle;rounded=0;orthogonalLoop=1;jettySize=auto;html=1;entryX=0;entryY=0.5;entryDx=0;entryDy=0;" edge="1" parent="1" source="Bfh9I3coePdYq5AxXN2m-22" target="Bfh9I3coePdYq5AxXN2m-1">
          <mxGeometry relative="1" as="geometry" />
        </mxCell>
        <mxCell id="Bfh9I3coePdYq5AxXN2m-22" value="add" style="rhombus;whiteSpace=wrap;html=1;" vertex="1" parent="1">
          <mxGeometry x="520" y="130" width="80" height="80" as="geometry" />
        </mxCell>
        <mxCell id="Bfh9I3coePdYq5AxXN2m-24" style="edgeStyle=orthogonalEdgeStyle;rounded=0;orthogonalLoop=1;jettySize=auto;html=1;entryX=0;entryY=0.75;entryDx=0;entryDy=0;" edge="1" parent="1" source="Bfh9I3coePdYq5AxXN2m-23" target="Bfh9I3coePdYq5AxXN2m-1">
          <mxGeometry relative="1" as="geometry" />
        </mxCell>
        <mxCell id="Bfh9I3coePdYq5AxXN2m-23" value="edit" style="rhombus;whiteSpace=wrap;html=1;" vertex="1" parent="1">
          <mxGeometry x="520" y="230" width="80" height="80" as="geometry" />
        </mxCell>
        <mxCell id="Bfh9I3coePdYq5AxXN2m-31" value="N" style="text;html=1;align=center;verticalAlign=middle;whiteSpace=wrap;rounded=0;" vertex="1" parent="1">
          <mxGeometry x="405" y="340" width="30" height="23" as="geometry" />
        </mxCell>
        <mxCell id="Bfh9I3coePdYq5AxXN2m-32" value="1" style="text;html=1;align=center;verticalAlign=middle;whiteSpace=wrap;rounded=0;" vertex="1" parent="1">
          <mxGeometry x="230" y="340" width="30" height="23" as="geometry" />
        </mxCell>
        <mxCell id="Bfh9I3coePdYq5AxXN2m-33" value="N" style="text;html=1;align=center;verticalAlign=middle;whiteSpace=wrap;rounded=0;" vertex="1" parent="1">
          <mxGeometry x="650" y="180" width="30" height="23" as="geometry" />
        </mxCell>
        <mxCell id="Bfh9I3coePdYq5AxXN2m-34" value="1" style="text;html=1;align=center;verticalAlign=middle;whiteSpace=wrap;rounded=0;" vertex="1" parent="1">
          <mxGeometry x="450" y="167" width="30" height="23" as="geometry" />
        </mxCell>
        <mxCell id="Bfh9I3coePdYq5AxXN2m-35" value="N" style="text;html=1;align=center;verticalAlign=middle;whiteSpace=wrap;rounded=0;" vertex="1" parent="1">
          <mxGeometry x="650" y="240" width="30" height="23" as="geometry" />
        </mxCell>
        <mxCell id="Bfh9I3coePdYq5AxXN2m-36" value="N" style="text;html=1;align=center;verticalAlign=middle;whiteSpace=wrap;rounded=0;" vertex="1" parent="1">
          <mxGeometry x="455" y="240" width="30" height="23" as="geometry" />
        </mxCell>
      </root>
    </mxGraphModel>
  </diagram>
</mxfile>
